<?xml version="1.0" encoding="utf-8"?>
<!-- Generator: Adobe Illustrator 18.1.1, SVG Export Plug-In . SVG Version: 6.00 Build 0)  -->
<svg version="1.1" id="Livello_1" xmlns="http://www.w3.org/2000/svg" xmlns:xlink="http://www.w3.org/1999/xlink" x="0px" y="0px"
	 viewBox="0 0 1190.5 841.9" enable-background="new 0 0 1190.5 841.9" xml:space="preserve">
<g>
	<g>
		<path fill-rule="evenodd" clip-rule="evenodd" fill="#FFFFFF" d="M634.6,435.8c0.5,0,1,0,1.4-0.1c1.7-0.5,2.8,0.2,3.4,1.7
			c0.7,1.6,0.6,3.1-0.5,4.4c-2,2.3-6.4,2.6-8.7,0.7c-1.6-1.4-1.7-4.5-0.2-6c0.4-0.4,1.1-0.7,1.7-0.8
			C632.6,435.6,633.6,435.7,634.6,435.8C634.6,435.7,634.6,435.7,634.6,435.8z"/>
		<path fill-rule="evenodd" clip-rule="evenodd" fill="#FFFFFF" d="M652.3,685c0.5,0.2,1.6,0.6,2.4,1.2c1.6,1.1,1.9,3.3,0.9,4.6
			c-1.3,1.7-4,2-5.4,0.5c-0.7-0.7-1.2-1.8-1.4-2.8C648.4,686.6,649.8,685.1,652.3,685z"/>
		<path fill-rule="evenodd" clip-rule="evenodd" fill="#FFFFFF" d="M996.3,570.5c-0.7,0.7-1,1.2-1.5,1.4c-0.7,0.3-1.7-0.5-1.5-1.3
			c0.1-0.5,0.7-1.3,1-1.3C994.8,569.4,995.4,570,996.3,570.5z"/>
		<path fill-rule="evenodd" clip-rule="evenodd" fill="#FFFFFF" d="M831,226.8c-0.1,1.2-1.2,2-2.3,1.8c-1.1-0.2-1.8-1.2-1.7-2.4
			c0.1-0.9,1-1.6,2-1.6C830.3,224.7,831.1,225.6,831,226.8z"/>
		<g>
			<path fill-rule="evenodd" clip-rule="evenodd" fill="#FFFFFF" d="M414.9,561.1c-1.2,1.1-1.9,2-2.8,2.6c-2.3,1.4-2.7,3.4-2,5.8
				c0.8,3,1.9,5.8,4,8.1c2,2.1,4.4,3.2,7.3,3c2.3-0.1,3.6-1.2,3.7-3.5c0.1-1.3-0.1-2.6,0-3.8c0-0.6,0.3-1.2,0.5-2
				c4.2,0.5,6.8,2.8,7.9,6.7c0.6,2.1,0.8,4.4,0.8,6.6c0,4.9-0.4,9.9,2.2,14.1c-1.1,2-2.7,2.3-4.3,2.5c-1.1,0.2-2.2,0.1-3.3,0.3
				c-2.9,0.6-4,3.4-2.2,5.9c0.4,0.5,0.8,1,1.3,1.4c1.7,1.4,3.4,2.9,5.1,4.3c5.4,4.5,11.1,5.2,17.4,2c4.1-2.1,7.8-4.9,11.1-7.5
				c0.7-2.2-0.3-3.6-0.6-5.1c-0.6-3,0.2-4.3,3.2-4.5c1-0.1,1.9,0,2.9,0c0.8,0,1.6,0,2.5,0c1.8-2.6,2.7-5.4,3.4-8.4
				c1.5-6,3.1-12.1,4.7-18.1c0.1-0.4,0.6-0.8,1-1.3c0.5,0.3,1.1,0.5,1.5,0.9c1.2,1.3,2.2,2.7,3.3,4.1c1.5,1.9,1.4,3.3-0.4,5
				c-0.6,0.5-1.3,1-1.9,1.5c-2.1,1.7-2.5,2.4-1.2,4.9c1.5,2.8,1.4,5.4,0.4,8.2c-0.7,2.3-1.2,4.6-1.5,7c-0.5,5.1,0.7,9.8,3.5,14.1
				c0.7,1.1,1.5,2.1,2.1,3.2c1.6,2.9,1,6-1.5,8.2c-0.7,0.6-1.6,1.1-2.2,1.8c-0.6,0.9-1.2,1.9-1.3,3c-0.3,2.2,1.1,3.6,3.4,3.5
				c0.8,0,1.5-0.3,2.3-0.4c0.9,2.5,0.9,3.3-0.6,4.2c-1.7,1.1-3.6,2-5.5,2.9c-2,1-4.1,1.9-5.9,3.1c-3.5,2.4-4.5,5.5-3.5,10.2
				c0.8,0.2,1.7,0.5,2.7,0.5c5.3,0.1,10,2.1,14.2,5.2c3.1,2.3,6,4.7,9,7.2c3.2,2.6,6.6,5,10.4,6.9c4.9,2.4,9.6,5.3,12.1,10.4
				c6.7,0.8,12.3,3.8,17.8,7.1c1.6,1,3.3,2,5,2.8c4.1,2.1,6.1,1.7,9.3-1.5c0.5-0.5,1.2-1,1.9-1.6c3.1,2.7,4.9,5.8,4.2,9.7
				c-0.6,3.7-2.9,6.3-6.8,7.5c-0.9-0.6-1.8-1.1-2.7-1.8c-4.6-3.8-9.5-7-14.7-9.9c-11.2-6.1-22.5-12.1-33.7-18.3
				c-5.6-3.1-11.2-6.1-16.6-9.5c-3.1-1.9-6-4.2-8.8-6.7c-2.9-2.6-6-4.8-9.4-6.5c-2.5-1.3-4.4-3.1-6.4-4.9
				c-10.9-9.8-19.6-21.5-29.4-32.2c-1.1-1.2-2-2.5-2.8-3.9c-3.6-5.8-7.2-11.7-10.8-17.6c-1.1-1.8-1.8-3.7-2.5-5.6
				c-1.2-3.3-2.8-6.4-4.3-9.6c-1.1-2.3-2.5-4.4-2.7-7.1c-0.1-1.4-0.7-2.9-1.4-4c-3.3-4.9-4.2-10.6-5.8-16.2
				c-0.3-0.9-0.5-1.9-0.6-2.8c-0.5-3.3,0.5-5.3,3.6-6.5c1.5-0.6,3.1-0.8,4.6-0.9c1.1-0.1,1.8,0.7,1.9,1.7c0.1,0.8,0.2,1.6,0.2,2.4
				c-0.1,4,1.3,7.2,5.1,9C413,559.3,413.7,560.1,414.9,561.1z M424.5,587.5c-2.5,0-3.9,1.5-3.5,3.4c0.2,1,0.7,2.1,1.4,2.8
				c1.4,1.5,4.2,1.1,5.4-0.5c1-1.3,0.6-3.4-0.9-4.6C426.1,588.1,425,587.8,424.5,587.5z"/>
			<path fill-rule="evenodd" clip-rule="evenodd" fill="#FFFFFF" d="M466,485.7c-0.1,3.3-1.2,5.4-2.5,7.4c-1.7,2.5-3.8,4.1-7.2,3.8
				c-3.2-0.3-6.3,0.7-9.3,2c-2.2,1-4.3,2.1-6.5,3.1c-1.9,0.8-3.8,1.8-5.8,2.2c-2.5,0.5-5,1-6.9,2.9c-0.6,0.6-1.6,0.5-2.1-0.3
				c-1.4-2-1.7-4.1-0.8-6.3c0.5-1.2,1.5-2.1,2.8-2.4c0.8-0.2,1.6-0.3,2.3-0.5c5.5-1.1,10.2-3.7,14.4-7.3c2.5-2.2,4.9-4.6,7.3-6.9
				c1.2-1.1,2.2-2.3,3.4-3.3c2.4-2,3.8-1.8,5.3,0.9C461.8,483,462.7,485.5,466,485.7z"/>
			<path fill-rule="evenodd" clip-rule="evenodd" fill="#FFFFFF" d="M501.7,552.7c0,5.3-5.3,8.6-9.8,6.7c-1.4-0.6-2.9-1.5-3.9-2.6
				c-2.9-3.4-5.7-6.9-8.3-10.5c-1.8-2.6-1-5.1,1.9-6.3c3.5-1.5,7.2-2.6,10.8-3.7c2-0.6,3.1,0.2,3.8,1.9c1.5,3.7,3.1,7.4,4.5,11.1
				C501.2,550.6,501.5,552.1,501.7,552.7z"/>
			<path fill-rule="evenodd" clip-rule="evenodd" fill="#FFFFFF" d="M467.4,526.7c-0.9-4.8-1.7-9.2-1.7-13.6c0-2,1.1-2.8,3.1-2.7
				c3.3,0.1,5,2,4.4,5.3c-0.4,2.2-0.9,4.4-1.7,6.4C471,523.8,470,525.5,467.4,526.7z"/>
			<path fill-rule="evenodd" clip-rule="evenodd" fill="#FFFFFF" d="M498.7,596c-0.6-0.1-1.4-0.2-2.1-0.5c-2.2-0.8-2.7-2.8-1.1-4.5
				c0.9-1.1,2-2,3.1-2.9c1.4-1.1,2.7-0.8,3.7,0.5c0.1,0.1,0.2,0.3,0.3,0.4c0.8,1.5,1.9,3.1,0.9,4.9
				C502.5,595.6,500.6,595.6,498.7,596z"/>
			<path fill-rule="evenodd" clip-rule="evenodd" fill="#FFFFFF" d="M392.9,527.8c0-0.3,0-0.6,0.1-1c0.3-2.3,1.9-3.9,3.5-3.9
				c1.4,0.1,3,1.7,3.4,3.5c0.2,1,0,1.9-0.8,2.6c-0.6,0.5-1.2,1-1.9,1.4C394.7,532,392.8,530.8,392.9,527.8z"/>
			<path fill-rule="evenodd" clip-rule="evenodd" fill="#FFFFFF" d="M754.9,470.9c-0.4-0.2-1-0.6-1.6-0.8c-3.3-1.1-5.8-3.3-7.9-6
				c-3-3.9-6.1-7.8-10.1-10.8c-2-1.5-2.4-3.6-2.1-6c0.7-5.7-0.2-11.1-2.9-16.3c-2.2-4.2-5.2-7.6-9-10.4c-1.6-1.1-3.1-1.6-4.9-0.6
				c-0.1,0.1-0.3,0.1-0.4,0.2c-3.9,1.1-5.2,0.3-5.9-3.7c-0.4-2-0.8-4.1-1-6.1c-0.4-3.9,2.1-6.1,5.9-5.1c3.3,0.9,6.2,2.3,8.7,4.8
				c6.6,6.6,10.9,14.5,13.8,23.3c0.5,1.5,0.4,3.1,0.7,4.7c0.6,3.3,2.1,4.5,5.4,3.8c3.6-0.8,7-0.5,10.1,1.4c3.4,2,5.9,4.9,7.4,8.5
				c1,2.3,1.1,4.6,0.9,7c-0.4,4.8-0.8,9.6-1.4,14.3c-0.3,2.2,0.1,4.1,1.4,5.9c0.3,0.4,0.5,0.8,0.8,1.2c2.6,3.5,1.9,6.9-0.4,10.2
				c-0.6,0.8-1.3,1.5-2.4,1.2c-1.1-0.4-1.9-1.2-2.1-2.4c0-0.2,0-0.3,0-0.5c1.7-5.9-0.5-11.3-2.5-16.7
				C755.4,471.6,755.2,471.3,754.9,470.9z"/>
			<path fill-rule="evenodd" clip-rule="evenodd" fill="#FFFFFF" d="M752.9,398.4c0.6-2.8,0.9-6,1.9-9c1.1-3.6,4.2-4.9,7.6-5.7
				c1.4-0.3,2.5,0.5,3.3,1.5c1.4,1.7,1.8,3.7,1.7,5.8c-0.4,4.2-1.5,8.2-3.9,11.6c-1.1,1.5-2.5,2.9-4.1,3.9c-2.4,1.6-4.8,0.7-5.5-2.2
				C753.3,402.6,753.3,400.7,752.9,398.4z"/>
			<path fill-rule="evenodd" clip-rule="evenodd" fill="#FFFFFF" d="M736,383.9c-0.1,2.1-0.1,3.8-0.3,5.5c-0.1,1.1-0.4,2.2-0.5,3.3
				c-0.5,4.1,0.6,7.5,4.2,9.9c0.5,0.3,0.9,0.8,1.4,1.2c-1.6,3-3.2,3.4-4.9,1.1c-1.6-2.2-2.9-4.5-4.4-6.8c-0.4-0.7-0.8-1.4-1.3-2
				c-0.8-1-2-1.2-3-0.5c-1,0.7-1.9,1.7-2.9,2.5c-1,0.8-2.1,0.7-2.9-0.3c-2-2.4-1.8-4.4,0.7-6c3.9-2.5,7.8-4.9,11.8-7.3
				C734.4,384.3,735,384.2,736,383.9z"/>
			<path fill-rule="evenodd" clip-rule="evenodd" fill="#FFFFFF" d="M687.5,388.6c0-0.9,0-1.7,0-2.5c0.1-1.7,0.8-2.3,2.3-2.3
				c1.3,0,1.9,0.6,2,2.1c0.1,0.9,0,1.9,0.1,2.8c0.2,2.1,1.2,2.8,3.2,2.5c0.9-0.2,1.8-0.5,2.8-0.5c0.3,0,0.8,0.5,1,0.8
				c0.1,0.4,0,1.1-0.2,1.2c-1.7,1.1-3.5,2.3-5.4,2.9c-3.1,1-5.7-1.1-6-4.3C687.2,390.4,687.4,389.4,687.5,388.6z"/>
			<path fill-rule="evenodd" clip-rule="evenodd" fill="#FFFFFF" d="M751.1,419.6c0.1,1.5-1.3,2.9-3.1,3c-1.8,0.1-3.7-1.4-3.7-3
				c0-1.3,1.5-2.8,3.2-3C749.2,416.3,751,417.9,751.1,419.6z"/>
			<path fill-rule="evenodd" clip-rule="evenodd" fill="#FFFFFF" d="M767.9,371.9c-2.3-0.7-2.8-2-3.3-3.3c-0.3-0.7,0.2-1.7,1-1.9
				c0.9-0.2,1.6,0.4,1.8,1.1C767.7,368.9,767.7,370.1,767.9,371.9z"/>
			<path fill-rule="evenodd" clip-rule="evenodd" fill="#FFFFFF" d="M462.6,362.9c0-17.6,0-35.2,0-52.8c0-1.9-0.1-3.8-0.1-5.8
				c0-1,0-1.9,0.1-2.9c0.4-2.3,2.5-3.5,4.6-2.6c0.9,0.4,1.7,0.9,2.4,1.5c13.6,10.9,26.9,22.2,38.3,35.4c0.9,1.1,2.1,1.9,3.2,2.9
				c1,1,2.2,1.9,3,3c1.3,1.8,2.5,3.7,4.6,4.7c0.5,0.3,0.9,0.9,1.3,1.4c2.1,3,4.3,6,7.4,8.1c0.3,0.2,0.5,0.4,0.6,0.7
				c1.9,4,5.3,6.7,8.1,10c8.6,10,12,21.7,10.6,34.7c-0.8,7.3-4.4,12.9-10.7,16.7c-0.8,0.5-1.6,1.1-2.5,1.4
				c-8.5,2.9-16.5,6.9-25.2,9.1c-11.8,2.9-23.7,3.2-35.7,2.5c-1.6-0.1-3.2-0.5-4.7-0.8c-3.1-0.6-4.7-2.6-5.1-5.6
				c-0.2-1.3-0.2-2.6-0.2-3.8c0-19.3,0-38.7,0-58C462.7,362.9,462.6,362.9,462.6,362.9z M497.3,333.6c-1.8,4.9-2.5,9-2.4,13.4
				c0,3.1,1.1,5.6,3.4,7.6c1.3,1.2,2.7,2.3,3.9,3.6c4.2,4.5,4.5,8.2,1,13.4c-1.1,1.6-2.4,3-3.5,4.5c-1.8,2.3-3.3,4.7-4.1,7.5
				c-1,3.4-0.4,6.7,1.4,9.7c1.4,2.4,3.5,3.6,6.3,3.8c2.8,0.1,5.3-0.8,7.6-2.5c1.4-1,2.1-2.5,2-4.2c-0.1-1.4-0.3-2.9-0.7-4.2
				c-0.9-2.7-1.9-5.4-3.7-7.8c-1.5-2-0.6-3.6,1.9-4.1c2-0.4,3.9,0,5.5,1.1c1.4,1,2.7,2.2,4.1,3.3c1.4,1.1,2.7,2.2,4.2,3.1
				c1.2,0.7,2.6,0.6,3.6-0.4c1.6-1.6,3.1-3.2,4.5-5c1.4-1.9,1.7-4.1,0.8-6.4c-0.7-1.8-1.2-3.6-1.9-5.4c-0.3-0.7-0.7-1.4-1.1-2
				c-1.3-1.6-2.7-3.1-3.9-4.8c-1.4-1.9-3-3.2-5.5-3.4c-0.9,0-1.8-0.4-2.6-0.7c-0.2-2-0.3-3.7-0.5-5.6c-1.6-0.6-3-1.4-4.5-1.8
				c-2.8-0.8-5.2-2.4-7.2-4.5c-1.4-1.4-2.6-2.8-4-4.2C500.4,336.6,499.1,335.4,497.3,333.6z M537.7,404.2c0-0.3-0.1-0.7-0.1-1.2
				c-0.3-1.7-1.7-2.5-3.2-1.6c-1.2,0.7-2.4,1.6-3.5,2.5c-1.4,1.2-1.6,2.8-0.7,4.3c0.8,1.4,2.5,2,4.2,1.4
				C536.5,409,537.7,407.2,537.7,404.2z M522.4,387.2c1.5,2.3,3.2,3.8,5.6,4.4c1.3,0.3,2.7-0.3,3.3-1.3c0.6-1.1,0.4-2.5-0.4-3.5
				c-1-1.2-2.3-1.7-3.8-1.6C525.5,385.2,524,385.7,522.4,387.2z M522.7,405.1c1.6,0,3.1-1.5,3.4-3.4c0.1-1.1,0-2.2-1-3
				c-1.1-0.8-2.1-0.3-3.1,0.2c-0.5,0.3-1,0.7-1.5,1.2c-0.8,0.8-1.3,1.8-0.9,3C520.2,404.3,521.5,405.1,522.7,405.1z"/>
			<path fill-rule="evenodd" clip-rule="evenodd" fill="#FFFFFF" d="M539.4,311.8c0.1,4.8-1.2,9.8-3.9,14.5
				c-0.8,1.4-1.7,2.7-2.8,3.9c-3.1,3.5-5.6,3.8-9.7,1.4c-1.1-0.7-2.1-1.4-3.2-2.2c-14.8-10.5-29.7-21.1-44.5-31.7
				c-1-0.7-2.1-1.5-3.1-2.3c-2.2-1.8-4-3.8-3.5-6.9c0.5-3.3,2.9-4.9,5.8-5.6c3.9-1,7.7-2,11.7-2.6c11.6-1.7,23-1,33.6,4.5
				c3.4,1.8,6.7,3.8,9.7,6.1C536.7,296.3,539.5,302.4,539.4,311.8z"/>
			<path fill-rule="evenodd" clip-rule="evenodd" fill="#FFFFFF" d="M574.7,211.2c0.2-0.9,0.3-2,0.7-3.1c2.2-5.1,4.2-10.3,5.5-15.8
				c0.1-0.5,0.4-0.9,0.6-1.3c0.6-1,1.7-1.5,2.8-1.2c1.1,0.3,1.9,1.3,1.7,2.5c-0.3,1.6-0.7,3.1-1.1,4.6c-0.9,3.5-1.9,7.1-2.8,10.6
				c-1,4.2-1.2,8.5-0.2,12.8c0.1,0.6,0.3,1.3,0.1,1.9c-0.2,0.5-0.7,1-1.2,1.3c-0.3,0.1-1.1-0.2-1.2-0.5c-1.6-3.3-3.2-6.6-4.7-9.9
				C574.9,212.7,574.9,212,574.7,211.2z"/>
			<path fill-rule="evenodd" clip-rule="evenodd" fill="#FFFFFF" d="M641.7,275.6c-2.4,0.6-4.5,1.2-6.7,1.6c-2.5,0.4-4.6-1-5.1-3.3
				c-0.6-2.5-0.6-5.1,0.5-7.5c0.7-1.8,2-2.8,4-2.9c3-0.2,4.5,0.7,5.3,3.6C640.4,269.7,641,272.4,641.7,275.6z"/>
			<path fill-rule="evenodd" clip-rule="evenodd" fill="#FFFFFF" d="M647.1,288.6c-0.7,2.6-2.6,3.7-4.7,4.6c-2.9,1.1-6,0.9-9,0.9
				c-1.3,0-2.4-1.3-2.2-2.6c0.1-1.4,0.5-2.8,1-4.1c0.2-0.5,1.5-1.2,1.9-1c3.6,2.1,7.5,1.3,11.3,1.6
				C645.9,288,646.4,288.3,647.1,288.6z"/>
			<path fill-rule="evenodd" clip-rule="evenodd" fill="#FFFFFF" d="M796.3,409.1c0-2.1-0.2-4.2-0.2-6.2
				c-0.6-19.8-1.1-39.7,0.1-59.5c0.7-11.7,0.1-23.4-0.9-35c-0.4-4.3-0.8-8.6-0.7-12.9c0.2-8.8,0.2-17.6,0.3-26.4
				c0-10.6-0.3-21.1-1.3-31.6c-0.5-5.4-1.3-10.8-2.7-16.1c-2.8-10.2-7.9-18.8-16.8-25c-4.2-2.9-9-4.9-13.6-7
				c-0.7-0.3-1.5-0.5-2.3-0.6c-6.9-1.5-13.3,0.4-19.5,3.3c-5.1,2.5-8.1,6.6-9,12.2c-0.8,4.9-2.5,9.6-2.2,14.6
				c0.1,1.7-0.4,3.5-0.7,5.2c-0.2,0.9-0.5,2-1.2,2.6c-2.4,2.3-4.4,5-7.7,6.4c-2.1,0.9-4,2-6,3c-5.6,2.8-11.4,5-17.6,6
				c-1.9,0.3-3.8,0.5-5.5,1.7c-0.6,0.4-1.5,0.6-2.3,0.6c-4.9,0.3-9.9,0.9-14.8,0.1c-4.9-0.8-9.2-2.7-12.7-6.2
				c-1.2-1.2-2.4-2.5-3.8-3.7c-5-4.1-8.1-9.4-10-15.5c-0.8-2.6-1.7-5.2-2.7-7.7c-2.4-5.9-3.9-11.8-3.4-18.2
				c0.6-7.7,4-13.7,10.5-17.9c4.1-2.6,8.7-4.2,13.6-4.3c6.3-0.2,11.9-2.4,17.2-5.5c2.3-1.3,4.4-3.1,6.5-4.9c2.6-2.3,3.9-5.4,4.1-8.9
				c0.1-2.2,0.3-4.5,0.3-6.7c0.1-8.5-3.6-15.1-10.5-19.9c-0.9-0.6-1.8-1.3-2.8-1.8c-3.8-1.9-7.7-3.9-11.6-5.7
				c-1-0.5-2.1-0.6-3.2-0.8c-2-0.4-4.1-0.7-6.2-0.9c-1.9-0.2-3.8-0.4-5.7-0.4c-3.2,0.1-6.4,0.3-9.6,0.5c-2.3,0.2-4.4-0.5-6.3-1.8
				c-2.1-1.5-3.9-3.3-5.3-5.5c-1.2-1.9-2.2-3.9-3.4-5.8c-0.8-1.4-1.7-2.7-2.7-4c-4.8-5.7-10.6-9.6-18.2-10.6
				c-2.7-0.3-5.1-0.1-7.4,1.1c-1.5,0.8-2.9,1.9-4.4,3c-5.2,3.9-9.1,8.9-12.7,14.3c-1,1.5-1.9,3-3,4.3c-3.4,4-7.6,5.1-12.5,3.4
				c-1.7-0.6-3.2-1.4-4.8-2.1c-6.9-3-14-4.2-21.5-3.5c-6.1,0.6-11.8,2.5-17.4,5c-5.8,2.5-10.7,6-14.9,11c-3.4,4.1-6,8.6-8.1,13.5
				c-1.6,3.7-1.8,7.3-1.1,11.2c1.9,10.6,7.7,18.4,16.1,24.6c1.4,1.1,3,1.9,4.8,1.9c2.8,0,5.4,0.7,7.9,1.8c1.8,0.8,3.6,1,5.6,0.2
				c3.5-1.5,7.2-2.7,10.7-4.2c3.4-1.5,6.4-3.6,8.8-6.6c0.3-0.4,0.6-0.7,1-1.1c1.1-1,2.4-0.8,3.3,0.4c0.4,0.5,0.7,1.1,1,1.6
				c2,5.1,3.4,10.2,2.4,15.9c-0.8,4.4-1,8.9-0.2,13.4c0.6,3.8-0.5,7.3-2.6,10.5c-1,1.6-2.1,3.2-2.8,5c-2.2,5.4-4.7,10.5-8.4,15
				c-0.5,0.6-1.1,1.3-1.2,2c-0.3,2-1.8,2.9-3.2,4c-3.4,2.4-6.9,4.6-9.7,7.8c-1.7,1.9-4.1,3-6.6,3.8c-1.5,0.5-3.2,0.8-4.4,1.7
				c-3.7,2.7-7.9,3.3-12.3,2.9c-1.1-0.1-2.3,0.1-3.4-0.1c-6-1.1-12.1-1.7-17.8-3.5c-6.2-1.9-12.1-4.9-17.6-8.6
				c-2.4-1.6-4.5-3.6-6.3-5.9c-1.3-1.6-1.7-3.2-1-5.3c0.8-2.6,1.2-5.3,1.6-8c1-5.9,0-11.8-0.3-17.7c0-1-0.5-2.2-1.1-3.1
				c-2-3.1-4.1-6.1-6.3-9.1c-0.7-1-1.8-1.8-2.7-2.6c-3.1-2.5-6.4-4.6-9.9-6.6c-5.4-3.2-11-4-16.4-1.4c-9.4,4.4-17.6,10.4-21.7,20.6
				c-0.8,2.1-1.9,4-2.8,6.1c-0.5,1.2-0.9,2.4-1,3.7c-0.3,3.2-1.1,6.3-2.6,9.2c-0.9,1.8-1.1,3.6-1.2,5.5c-0.1,1.9-0.2,3.9-0.8,5.6
				c-0.7,2-1,4-1,6.1c-0.1,9-0.2,17.9-0.2,26.9c-0.4,38.4-0.8,76.8-1.1,115.2c-0.1,6.7,0,13.5,0.5,20.1c0.5,5.8,0.5,11.4-0.8,17.1
				c-1,4-0.6,7.9,1.6,11.6c0.3,0.5,0.5,1.1,0.8,2c-3.4,2.7-3.3,6.3-2.2,10c0.1,0.5,0.3,0.9,0.3,1.4c0,1.1,0.2,2.3-0.1,3.3
				c-1.1,3.3-0.8,6.6-0.8,10c0,3.8-0.1,7.7-0.1,11.5c0,1.6,0.1,3.2,0.2,4.8c0,1.3,0.2,2.5,0.1,3.8c-0.1,4.2-0.4,8.3-0.5,12.5
				c-0.1,4,1,7.9,2.4,11.7c0.2,0.6,0.3,1.6,1.6,1.6c0.7-1.6,1.2-3.2,2-4.7c1.2-2.4,3.1-4.1,5.7-4.8c2.4-0.7,3.8,0,4.3,2.4
				c0.4,2,0.3,4.1,0.3,6.2c0.1,2.1-0.1,4.2,0.1,6.2c0.1,1.9,0.9,3.7,3.3,5.3c0.5-2.7,1.2-4.7,1.3-6.7c0.4-5.4,0.7-10.9,1-16.3
				c0.4-6,1.3-11.8,4.7-16.9c1.7-2.7,4-5,4.2-8.4c0-0.4,0.4-0.9,0.6-1.3c1.5-2.3,4-2.9,6.2-1.2c1.1,0.8,2.1,2,2.9,3.2
				c3.2,4.6,7.6,7.2,13.2,7.7c2.2,0.2,4.5,0.1,6.7,0.1c1.8,0,3.5-0.3,5.3-0.3c4.9,0,8.8,2,11,6.3c2.6,5,6.2,9.3,10,13.4
				c1.6,1.8,3.3,3.5,4.8,5.4c4.4,5.2,6,11.1,4.1,17.9c-0.5,1.7-0.4,3.5-0.4,5.2c0,1.5,0.8,2.7,2,3.6c0.8,0.6,2,0.5,2.5-0.4
				c0.4-0.7,0.8-1.5,0.8-2.2c0-1.9-0.3-3.8-0.5-5.7c-0.1-0.9-0.2-1.8-0.3-2.7c4.4,0.2,6.6,1.1,9,4.1c1.3,1.6,2.2,3.5,3.2,5.3
				c1.2,2.2,2.1,4.8,3.7,6.7c1.7,2.1,1.9,4.3,1.9,6.7c0,3.3-0.2,6.7,1.3,9.9c1.1,2.5,0.7,5-1.4,7.1c-2.4,2.3-2.4,5.1-1.7,8
				c0.3,1.2,0.8,2.4,1.3,3.6c0.5,1.5,1.2,3,1.6,4.5c2,7.4,2.6,14.7-1.6,21.8c-2.1,3.6-2.1,7.4,0.1,10.9c1.9,3.1,2.3,6.2,1.5,9.6
				c-0.7,2.9-0.4,5.7,1.8,8.1c0.5,0.6,0.9,1.3,1.3,2c1.6,2.8,1.6,5.5-0.3,8.1c-0.8,1.2-1.8,2.2-2.8,3.3c-0.9,1-1.8,1.8-2.7,2.8
				c-3.3,3.8-2.6,6,2.3,7.4c1.4,0.4,2.8,0.6,4.2,0.9c1.9,0.4,3.8,0.6,5.6,1.2c3.6,1.1,6.1,3.3,7.4,6.9c0.5,1.3,1,2.7,1.4,3.8
				c0.6,0.2,0.9,0.5,1.2,0.4c0.8-0.1,1.6-0.2,2.3-0.5c2.2-1.1,4.4-1.6,6.9-1c2.2,0.6,4.1-0.1,5.8-1.5c1-0.8,2-1.6,3.1-2.3
				c0.9-0.6,1.9-0.5,2.7,0.2c0.9,0.7,1.6,1.6,2.4,2.3c3.3,3.2,7,6,11.8,7.5c0.5-0.7,1.3-1.5,1.4-2.2c0-1.2-0.2-2.6-0.8-3.6
				c-1.4-2.3-2.9-4.6-4.7-6.6c-3-3.4-6.4-4.1-10.4-2.1c-3.3,1.7-6.9,2.5-10.4,3.4c-1,0.3-2.1,0.2-3.2,0.2c-0.4-1-0.7-1.7-0.9-2.5
				c-0.9-5.8-3.1-10.7-8.5-13.8c-1.6-0.9-2.3-2.6-2.3-4.5c0-1.6-0.1-3.2-0.1-4.6c-0.9-0.9-1.7-1.5-2.3-2.2c-1.6-1.8-1.5-3.1,0.5-4.3
				c3.8-2.2,8.1-2.8,12.2-3.9c3-0.8,6.3-0.6,9.5-0.8c5.4-0.4,10.3,0.6,14.8,4.2c6.9,5.5,14,10.7,21.7,15c2.4,1.3,4.3,3.3,5.9,5.5
				c7,9.9,7.4,25-1.7,35.1c-0.6,0.7-1.3,1.4-2,2c-2.3,1.8-4.2,1.9-6.6,0.5c-0.5-0.3-1.1-0.7-1.5-1.1c-3.1-3.1-7.1-4.9-11-6.6
				c-0.9-0.4-1.8-0.9-2.7-0.8c-2.2,0.2-4-0.6-6-1.4c-2.1-0.8-3.3-0.3-4.3,1.8c-2.1,4.4-1.3,9.7,2.2,13.3c2.4,2.5,5.5,3.8,8.9,4.3
				c1.9,0.3,3.8,0.4,5.7,0.9c4.8,1.2,6.8,4,5.7,8.8c-0.6,2.9-0.1,5,2.1,6.8c4.4,3.7,5.9,8.6,5.9,14.1c0,2.2,0,4.5-0.1,6.7
				c-0.1,4.5,0.2,8.9,2.5,13c0.9,1.6,0.1,3.2-1.6,3.8c-1.3,0.5-2.5,0.4-3.6-0.6c-2.9-2.4-5-5.3-6-9c-1.2-4.7-4.4-7.7-9.2-8.7
				c-0.5-0.1-1.1,0.1-1.7,0.1c1,2.6,1.8,5,2.8,7.3c0.4,0.8,1.1,1.6,1.9,2c4.5,2.3,7.3,6.2,9.8,10.2c1.8,2.8,3.5,5.7,5.1,8.7
				c1.6,2.9,4,4.9,6.7,6.6c1.5,1,2.9,1.1,4.5,0.4c4.2-1.8,8-4.1,11-7.5c2.4-2.8,4.7-5.7,6.2-9.1c1.4-3.2,3.3-5.8,6.4-7.5
				c0.9-0.5,1.9-1.3,2.4-2.2c2.3-4.2,5.7-7.4,9.3-10.1c5.9-4.4,12.2-8.2,18.4-12.2c0.8-0.5,1.7-0.8,2.6-1.3c2.1-1.1,4.3-2.2,6.3-3.5
				c6.5-4.1,13-8.2,20.3-10.8c3.6-1.3,7-3.1,10.3-5.1c1.8-1.1,3.5-2.2,5.3-3.3c3.1-2,6.4-3.6,10-4.6c1.5-0.4,3-1.2,4.2-2.1
				c5.7-4.2,11.6-8,18-11c1-0.5,2.1-1,2.8-1.8c3.8-4.3,8.6-7.2,13.4-10.1c1.5-0.9,3.1-1.9,4.1-3.2c2.1-2.7,4.6-4.9,7.5-6.6
				c0.7-0.4,1.3-0.9,1.9-1.5c5.4-5.7,10.8-11.3,16.1-17.1c3.5-3.8,6.4-8,8.6-12.7c1.1-2.3,2.4-4.6,4-6.5c2.1-2.3,3.5-4.9,4.6-7.8
				c1-2.4,1.9-4.7,2.8-7.2c2.8-8.2,5.1-16.5,5.5-25.2c0.3-8.6,0.8-17.3,0.9-25.9C798.1,494.5,797,451.8,796.3,409.1z M732.5,206.5
				c0.8-3.2,2.3-6,4.8-8.1c2.3-1.9,4.8-3.6,7.3-5.4c2-1.4,4.3-2.1,6.4-1.8c4.5,0,8.3,1.2,12.1,2.3c0.9,0.3,1.7,0.8,2.5,1.4
				c5.3,4.2,8.7,9.7,10.4,16.2c0.4,1.7,0.2,3.2-0.8,4.5c-1,1.4-2.4,1.7-3.7,0.7c-0.6-0.5-1.2-1.1-1.8-1.6c-2.1-1.6-4.4-1.7-6.6-0.1
				c-1.9,1.3-3.1,3.2-3.9,5.3c-0.7,1.8-1.4,3.6-2.4,5.2c-1.8,3.1-4.6,4.8-8.2,5c-0.5,0-1,0.1-1.4,0.1c-7.3,0.1-10.4-2.3-12.3-9.4
				c-0.8-2.9-1.6-5.8-2.4-8.8C731.9,210.3,732,208.4,732.5,206.5z M761.9,228.3c-0.8-0.3-1.3-1.5-1-2.5c0.3-1.3,1.6-2.5,2.7-2.1
				c0.8,0.2,1.4,1.1,1.9,1.4C765.7,227.2,763.4,228.8,761.9,228.3z M625.6,165.5c4.6-6.5,4.9-13.6,3.1-21.1c-0.6-2.6-1.2-5.3-1.6-8
				c-0.2-1.4-0.4-2.9-0.4-4.3c0-3.3,1.4-5.9,4.1-7.7c1.3-0.9,2.7-1.7,4.2-2.2c3.3-1.2,6.6-2.6,10-3.3c4.7-1,9.5-1.1,14.3,0.1
				c2.6,0.6,5.3,1.1,8,1.7c1.1,0.2,2.3,0.4,3.1,1c4.9,3.6,8.7,8,10.5,13.9c1.7,5.4,0.7,10.1-3.2,14.2c-2.9,3-6.4,5.3-10,7.4
				c-2.7,1.6-5.6,1.6-8.2,0c-2.5-1.6-4.9-3.6-7.1-5.6c-1.5-1.3-2.1-3.2-2-5.2c0.1-2.4,0.4-4.8,0.6-7.2c0.1-0.9,0.1-1.8,0.2-3.1
				c-2.9,0.5-4.7,1.8-5.2,4.4c-0.3,1.4-0.3,2.9-0.1,4.3c0.6,5.2-1,9.8-4.1,13.9c-3.1,4.2-7,7.4-12,9.2c-1.5,0.5-3,0.9-4.9,0.2
				C625.1,167.2,625.1,166.2,625.6,165.5z M580.1,115.6c0.9-1.1,1.9-2.2,3-3.1c1.2-1.1,2.4-2.1,3.7-3c2.5-1.8,4.5-4,6.1-6.6
				c0.8-1.3,1.8-2.7,2.9-3.8c2.7-2.6,6-2.2,8.1,1c0.8,1.3,1.3,2.9,1.9,4.4c1,2.7,1.9,5.4,2.9,8.1c0.5,1.3,0.9,2.5,1.2,3.7
				c0.7,2.6,0.9,5.4,0.9,9.5c0,6.5-1.2,12.8-3.9,18.6c-0.4,0.8-0.8,1.7-1.3,2.5c-1.2,2.2-2.8,4.3-4.6,6.1c-2.3,2.3-4.1,2-5.9-0.6
				c-1.1-1.6-2-3.2-3-4.9c-1.1-1.9-1.4-3.8-0.8-6c1.3-4.4-0.6-7.8-3.7-10.6c-0.9-0.9-2.1-1.4-3.1-2.3c-1.5-1.2-3-2.4-4.2-3.9
				C577.8,121.8,577.8,118.8,580.1,115.6z M549.4,148.6c-2.7,9.8-12,16-22.1,16c-2.9-0.1-6.3-1-9.3-2.9c-1.1-0.7-2.1-1.5-2.8-2.5
				c-2.3-3-1.3-6.8,2.1-8.4c1.1-0.5,2.4-0.8,3.6-1.2c4.8-1.8,6.6-5.2,5.6-10.2c-0.2-1.1-0.6-2.2-1-3.2c-1.5-4-3.7-5.4-8-5.4
				c-0.6,0-1.3,0.2-1.9,0.1c-1.8-0.1-3-0.9-3.2-2.3c-0.3-1.8,0.7-4,2.3-4.2c3.6-0.5,7.3-0.9,10.9-0.8c2.8,0.1,5.1,1.8,6.5,4.3
				c0.5,0.8,1.1,1.7,1.2,2.6c0.6,3.8,3.2,5.2,6.5,6.1c1.8,0.5,3.7,1.1,5.4,2C549.3,140.7,550.7,144.2,549.4,148.6z M542.5,241.6
				c0.3-0.5,0.7-1,1.2-1.5c1.8-1.7,3.1-3.7,3.3-6.2c0.1-1.6,1.1-2.6,2.3-3.5c1.9-1.5,3.8-3,5.6-4.5c1.7-1.5,3.3-3,4.9-4.6
				c1.5-1.5,2.4-3.3,3-5.4c1.5-5.9,2.6-11.9,3.2-17.9c0.2-2.4,0.2-4.8,0-7.2c-0.5-5.7-1-11.5-1.7-17.2c-0.5-3.5-1-7-2.2-10.3
				c-1.8-4.9-2.5-9.6-0.1-14.4c-2.4-3.7-4.7-7.4-7.1-11c-2.3-3.5-5.4-5.8-9.8-6.2c-0.9-0.1-1.9-0.3-2.8-0.7c-1.2-0.4-2-1.9-1.6-3.1
				c0.4-1.2,0.9-2.4,1.6-3.5c1-1.8,2.2-3.5,3.2-5.3c0.3-0.5,0.3-1.1,0.5-2.1c-1.3,0.2-2.2,0.3-3,0.5c-1.1,0.3-2.1,0.8-3.2,1
				c-1,0.2-1.9-0.2-2.5-1.1c-0.6-0.9-0.5-2.2,0.4-3.1c0.7-0.7,1.4-1.4,2.3-1.6c1.2-0.4,2.6-0.7,3.7-0.5c4.2,0.8,8.5,1.7,12.6,2.8
				c4.2,1.2,7.1,3.9,7.6,8.4c0.5,4.2,3.3,5.9,6.7,7.2c2.4,0.9,4.8,1.8,7,3.1c2.7,1.7,3.3,4.7,2,7.6c-1.2,2.7-3.3,3.8-6.2,2.9
				c-1.2-0.4-2.3-1-3.5-1.5c-1.2-0.5-2.3-0.9-3.4-1.3c-1.3,1.5-1.1,2.9-0.1,4.1c1,1.2,2,2.5,3.3,3.4c1.9,1.4,3,3.1,3.7,5.3
				c0.9,2.8,3.1,3.7,5.6,2.3c0.7-0.4,1.4-1.3,1.7-2.1c0.5-1.3,0.6-2.8,1-4.2c0.2-0.6,0.6-1,1.2-1.9c0.7,0.7,1.4,1.2,1.6,1.8
				c1.1,2.8,2.1,5.7,3.1,8.6c0.7,2.3,1.2,4.6,2,6.9c0.7,1.9,1.6,3.8,2.7,5.6c1.4,2.5,3.5,4.1,6.6,3.9c3-0.2,5.6,0.5,7.5,3.3
				c1.1,1.7,3.2,1.3,4.3-0.5c0.8-1.3,0.8-1.3,0.5-4.9c-1-0.5-2.2-1-3.3-1.5c-2.7-1.4-3.6-2.8-3.2-5.8c0.4-3,0.8-6,1.4-9
				c0.4-1.9,1.1-3.7,1.9-5.4c1.8-3.6,3.8-7,5.8-10.5c1.1-1.9,2.5-3.4,4.9-3.2c2.6,0.3,4.3,1.9,5.2,4.4c0.2,0.4,0.2,0.9,0.3,1.4
				c0.8,5.7-0.3,16.4-2.5,22.4c-1.1,0.3-2.3,0.5-3.5,0.9c-2.2,0.8-3.1,2-2.9,4.4c0.1,1.9,0.9,3.8,0.9,5.7c-0.1,3.6,1.8,6,4.1,8.3
				c0.6,0.6,1.1,1.2,1.6,1.8c3.6,3.7,4.7,8.1,3.8,13.2c-0.7,4.2-1.8,8-5.6,10.8c0.8,0.3,1.2,0.5,1.7,0.6c3.7,1.2,6,3.8,6.8,7.4
				c1.7,7.7,6.2,13.6,11.6,18.9c2.2,2.1,4.3,4.3,6.5,6.4c3.5,3.4,5.5,7.5,6.2,12.2c0.5,3.2,0.8,6.3,0.9,9.5
				c0.5,10.4,0.7,20.8,1.3,31.2c0.3,4.6,0.9,9.2,1.7,13.8c0.9,4.6,2.8,8.9,5.6,12.6c3.5,4.7,5.7,9.9,7.1,15.6
				c1.2,5,2.7,9.9,4.1,15.2c-1.4,3.2-3.8,6.1-7.1,8.2c-3,1.9-6.1,2.4-9.5,0.6c0.1-0.6,0.1-1.1,0.3-1.4c0.7-1.1,1.5-2.2,0.6-3.5
				c-1.2-1.6-2.7-2.8-4.8-2.6c-0.6,0.1-1.4,0.8-1.7,1.4c-0.5,1.3-0.6,2.8-1.1,4.2c-0.9,2.8-2.4,3.3-5.2,2.2
				c-0.6-0.3-1.1-0.6-1.7-0.9c-2.1-0.8-3.3-0.4-4.4,1.5c-0.8,1.2-1.4,2.5-2.2,3.7c-1.1,1.4-2.7,1.8-4.3,0.9
				c-1.4-0.8-2.6-1.8-3.9-2.8c-2.3-1.8-4.4-3.7-6.7-5.4c-3-2.3-6.4-3.5-10.3-3c-1.1,0.1-2.3,0.2-3.3,0c-3-0.6-4.2-2.9-3-5.7
				c0.4-1,1-2,1.5-3c2-4,4.1-8,6-12c1-2.2,1.9-4.4,2.8-6.6c2.5-7.1,1.7-13.8-2-20.3c-2.5-4.3-4.7-8.7-7.1-13
				c-0.8-1.5-1.7-3.1-2.7-4.5c-2.8-4.2-6.5-7.1-11.5-7.9c-3.8-0.6-6.9-2.3-9.6-4.9c-2.7-2.6-5.8-4.4-9.5-5.4c-1.2-0.3-2.4-1-3.4-1.7
				c-1.1-0.8-1.6-2-1.2-3.4c0.3-1.2,1.4-2,2.9-2c1.4,0,2.9,0.2,4.3,0.3c2,0.2,3.8-0.1,5.3-1.6c2.2-2.2,4.7-2.5,7.4-1.2
				c1.3,0.6,2.6,1.1,4,1.7c3.9,1.8,6.9,4.5,8.3,8.8c0.1,0.4,0.4,0.9,0.8,1.6c0.7-0.4,1.3-0.7,1.9-1.2c0.7-0.6,1.4-1.4,2.1-2
				c2.7-2.1,5-2.3,7.9-0.5c0.8,0.5,1.6,1.1,2.3,1.7c2.6,2.1,6.6,0.6,7.7-2.1c1.4-3.6,2.4-7.3,2.1-11.2c-0.1-2.1-0.9-4.1-2.2-5.7
				c-2.5-3-6.4-4-9.9-2.5c-1.3,0.6-2.6,1.3-3.8,2c-2.5,1.5-5.1,1.5-7.8,0.4c-0.6-0.2-1.2-0.5-1.8-0.8c-6-3.3-12.5-4.8-19.2-5.4
				c-3.4-0.3-6.6-1.2-9.7-2.4c-0.4-0.2-0.9-0.3-1.3-0.5c-4.2-1.6-8.1-1.3-11.7,1.7c-0.4,0.3-0.8,0.4-1.5,0.8c-1.2-0.5-2.5-1-3.7-1.7
				c-2.5-1.2-4.9-2.2-7.8-2C542.5,245.6,541.4,243.6,542.5,241.6z M530.7,246.3c1.3-1.2,2.9-2,4.7-2.1c1.4-0.1,2.8,1.1,2.8,2.6
				c0.1,1.7-1.5,3.7-3.7,4.6c-1.4,0.6-2.9,0.2-3.9-0.9C529.4,249.3,529.4,247.5,530.7,246.3z M514.6,252.4c2.9-0.5,6-0.5,9-0.5
				c1.7,0,3,1.2,3.4,2.9c0.5,2,0.9,4,1,6.1c0.2,2.5-1,3.8-3.4,4.4c-0.3,0.1-0.6,0.1-0.9,0.2c-1.6,0.1-3.2,0.2-4.2,0.2
				c-0.8,0-1.2,0-1.5,0c-1.5-0.1-3.2,0.4-4.5-0.9c-1.4-1.5-2.6-3.2-3.1-5.3C509.8,256.4,511.6,253,514.6,252.4z M489.5,257.8
				c0.3-1.9,1.6-3.3,3.5-3.5c3.1-0.3,6.4-0.6,9.5-0.2c3.5,0.4,4.7,3.1,3.8,8.2c-5.1,1-10.1,1.9-15.1,2.3
				C489,262.5,489,260.1,489.5,257.8z M474.7,258.9c1.8-1.5,5.8-1,7.3,0.9c0.3,0.4,0.5,1.2,0.3,1.7c-0.2,0.5-0.8,1.1-1.3,1.1
				c-2.2,0-4.4-0.1-6.6-0.2C473.5,260.7,473.7,259.7,474.7,258.9z M403.4,276c1.2-1.3,2.4-2.6,3.7-3.8c2-1.9,3.2-4,2.6-6.8
				c-0.1-0.6-0.1-1.3-0.1-1.9c0-1.6-0.7-2.7-2.1-3.4c-0.9-0.4-1.8-0.8-2.5-1.3c-1.9-1.3-2.5-2.8-1.8-5c0.5-1.5,1.1-3,1.8-4.5
				c0.7-1.5,2.5-1.6,3.4-0.2c0.4,0.6,0.7,1.4,1.1,2.1c0.4,0.8,0.8,1.7,1.4,2.8c1-0.5,1.9-0.8,2.6-1.3c1.8-1.5,2.7-3.6,2.9-5.9
				c0.4-3.9,0-7.7-1-11.4c-0.6-2.3-2.1-3.1-4.4-2.6c-1.1,0.2-2.1,0.8-3.2,1.1c-2.5,0.7-3.8-0.1-3.9-2.6c-0.3-4.3-0.2-8.6,0.6-12.9
				c2-10.8,6.9-20.2,13.1-29.1c2.7-3.9,6.6-5.9,11.2-6.7c4-0.7,8-0.2,11.9,0.3c1.8,0.2,3.2,1.1,4.2,2.8c2.7,4.3,5.6,8.6,8.3,12.9
				c0.4,0.7,0.8,1.4,1.1,2.1c0.9,1.6,0.4,3.1-0.6,4.4c-1,1.2-3,1.9-2.7,3.7c0.2,1.3,1.2,2.5,1.9,3.8c1.8,3.3,1.7,5.5-0.9,8.3
				c-2.4,2.5-5,5-7.7,7.2c-5.2,4-10.6,3.5-16.1,0.2c-1.6-1-2.5-2.4-2.3-4.4c0.2-1.6,1.4-2.6,3-2.4c1.6,0.2,3.1,0.6,4.7,0.6
				c2.1,0,3.4-1.1,3.9-2.9c0.5-1.9,0-3.5-1.8-4.5c-2.5-1.4-4.1-3.5-5.6-5.8c-0.5-0.8-1-1.6-1.6-2.4c-1.9-2.2-4.6-2.3-6.7-0.2
				c-1.2,1.1-1.9,2.6-2.2,4.2c-0.9,5.2-1.1,10.5,0,15.7c1,4.9,4,8,8.8,9.1c2.8,0.7,5.7,1,8.5,1.1c3.3,0.1,6.7-0.1,10.1-0.2
				c3.6-0.1,7,0.4,10,2.6c1.1,0.8,2.6,1.1,3.9,1.5c0.9,0.3,1.8,0.5,2.7,0.9c1.1,0.5,1.7,1.5,1.7,2.7c0,1.2-0.6,2.2-1.7,2.6
				c-0.9,0.4-1.9,0.5-2.7,1c-0.9,0.5-1.8,1.2-2.6,1.8c0.4,2.1,1.8,2.9,3.2,3.7c1.5,0.9,3.1,1.7,4.6,2.6c1,0.7,2,1.6,2.8,2.6
				c0.8,0.9,0.7,2.1,0.1,3.1c-0.6,1-1.4,1.8-2.7,1.5c-3.1-0.8-5.9,0-8.8,1.4c-4.7,2.3-9.7,3.1-14.9,3.2c-4.8,0.1-9.6,0-14.4,0
				c-2.1,0-4.2-0.1-6.2,0.1c-1.4,0.1-2.9,0.4-4.1,1.1c-3.3,1.6-4.6,3.9-3.6,7.4c0.8,2.9-0.2,4.6-2.1,6.3c-1.1,0.9-2.3,1.7-3.5,2.6
				c-1.6,1.2-2.9,2.6-2.4,4.8c0.2,1-0.4,1.8-1.2,2.4c-1,0.8-2.3,0.5-2.7-0.7c-0.1-0.5-0.3-0.9-0.3-1.4c0.1-3,0.3-6-0.3-9.1
				C401.3,279.1,402.2,277.4,403.4,276z M402.3,358.3c1.3-0.6,1.8,0.1,2.3,0.8c1.5,2.2,2,4.7,2.2,7.2c0.2,2.7,0.6,5.3,1.8,7.8
				c0.2,0.4,0.3,0.9,0.4,1.4c0.3,1.6-0.3,2.9-1.9,3.4c-1.8,0.6-3.7,0.9-5.9,1.5C400,372.4,400.5,365.2,402.3,358.3z M402.3,339
				c0.4-0.4,1.1-0.7,1.7-0.8c0.9-0.1,1.9,0,2.8,0c0,0,0,0.1,0,0.1c0.5,0,1,0,1.4-0.1c1.7-0.5,2.8,0.2,3.4,1.7
				c0.7,1.6,0.6,3.1-0.5,4.4c-2,2.3-6.4,2.6-8.7,0.7C400.9,343.6,400.7,340.5,402.3,339z M407,483.2c-2.7,2.3-7.4,0.6-7.8-2.9
				c-0.5-4.1-0.6-8.2-0.9-12.3c0.1,0,0.1,0,0.2,0c0.1-1.4,0.3-2.8,0.3-4.3c0-2.1,1.2-3.5,2.8-4.7c0.9-0.6,1.9-0.4,2.5,0.5
				c0.5,0.8,0.9,1.7,1.1,2.6c1.3,4.9,2.5,9.8,3.9,14.7C409.9,479.5,408.9,481.5,407,483.2z M411.8,442.1c-0.2,0.9-0.6,1.8-1,2.7
				c-1,1.8-2.5,2.7-4.4,2c-2.3-0.9-4.6-2.1-6.7-3.6c-0.9-0.6-1.4-2.1-1.8-3.3c-1.3-4-0.7-8.2-0.9-12.4c0-0.7,0.4-1.5,0.7-2.2
				c1.5-2.8,1.7-5.8,1.5-8.8c-0.1-1.8-0.4-3.5-0.4-5.3c0-2.1,0.3-4.1,0.5-6.2c0.2-1.9,0.5-3.8,0.9-5.6c0.2-1.2,0.5-2.5,1-3.6
				c0.2-0.4,1-0.9,1.5-0.8c0.5,0.1,1.2,0.6,1.4,1.1c0.4,1.5,0.6,3.1,1,4.9c2.3,1.1,3.7,3.1,4.1,5.8c0.1,0.9,0.6,1.9,1.2,2.5
				c1.9,1.8,2.1,4.2,2.3,6.6c0.3,3.5,0.6,7,0.7,10.5C413.8,431.8,412.8,436.9,411.8,442.1z M520.8,489.2c-4.1,0-7.9,0-11.7,0
				c-3,0-5.6-1.1-7.7-3.3c-1.5-1.6-3.1-3.2-4.4-5c-1.9-2.6-1.7-4.6,0.5-6.8c1.7-1.7,3.6-3.1,5.7-3.9c1.9,0.7,2.4,2.2,2.7,3.8
				c0.4,1.8,1.3,3.2,3.3,4.1c0.4-0.7,0.8-1.4,1.1-2c0.3,0,0.7-0.1,0.9,0c2.1,0.9,4.1,1.7,6.1,2.6
				C522.3,481.1,523.2,483.7,520.8,489.2z M535.1,424.5c-0.1,1.1,0.2,2.2,0.2,3.3c0.2,2.9,0.5,5.7,0.6,8.6c0.1,2.2-0.3,4.4-1.8,6.1
				c-0.5,0-0.9,0.1-1.1-0.1c-3-2.8-6.7-3.4-10.7-3.3c-15.7,0.1-31.3,0.2-47,0.3c-16.5,0-32.9,0-49.4,0c-1.4,0-2.9,0-4.3-0.2
				c-4.1-0.5-6.1-3.1-6.1-7.2c-0.1-27.2-0.1-54.4-0.2-81.5c0-5.1,0.5-10.2-0.4-15.3c-0.2-0.9,0.1-1.9,0.3-2.8
				c0.3-1.7,0.5-3.4-0.3-6.3c-2.6,4.3-4.7,7.6-9,8.5c-5.7-4.7-6.5-10-2.4-15.6c0.3-0.4,0.6-0.8,0.9-1.1c3.8-4.4,5.6-4.4,9.8-0.1
				c1.1-1.5,1.3-3.2,1.3-4.9c-0.1-4.8-0.3-9.6-0.4-14.4c-0.1-2.4-0.1-4.8,0-7.2c0.1-3.7,0.4-7.3,0.4-11c0-2.8,1.2-4.4,3.7-5.5
				c4.5-1.8,9.2-2.7,14-2.8c6.2-0.2,12.5-0.5,18.6-1.6c2-0.4,4.1-0.3,6.2-0.3c11.4-0.2,22.7-0.6,34.1-0.6
				c14.6-0.1,29.1,0.4,43.5,2.5c10.5,1.5,20.7,3.9,30.3,8.7c5,2.5,9.7,5.6,13.6,9.7c3.4,3.5,5.9,7.5,7.2,12.3
				c1.2,4.3,0.8,8.5-0.6,12.7c-1.4,4.2-3.8,7.7-6.7,11c-4.4,4.8-9.5,8.6-15.6,10.9c-4.2,1.6-8.5,2.8-12.7,4.1
				c-1.1,0.3-2.2,0.6-3.2,1c-3,1.5-3.4,4.4-0.9,6.5c2.3,1.9,4.8,3.7,7.3,5.4c9.5,6.8,18.9,13.7,27,22.2c3.3,3.5,6.4,7.2,8.8,11.4
				c3.1,5.4,5.1,11,5,17.3c-0.1,9.4-6.2,16.1-15.5,16.9c-0.8,0.1-1.6,0.1-2.4,0.1c-10.9-0.3-21.7-0.6-32.6-0.9
				c-2.1-0.1-4.2-0.3-6.2-0.2C536.3,421.3,535.2,422.4,535.1,424.5z M582.6,469.9c-0.5,3.3-0.8,6.7-0.7,10c0.2,15,0.6,30.1,0.8,45.1
				c0.1,10.7-0.1,21.4-0.1,32.1c0,7-0.3,14.1,0.9,21.1c0.4,2.4,0.1,4.8-0.6,7.1c-1.3,4.1-4.4,6.2-8.7,5.9c-4.1-0.4-8.3-1-12.4-1.4
				c-3.3-0.4-6.7-0.6-10-0.9c-1.9-0.2-3.8-0.3-5.7-0.7c-4.9-1-7.9-4.1-8.5-9.1c-0.3-2.4-0.3-4.8-0.2-7.2c0.3-14.2,0.7-28.5,1-42.7
				c0.4-16.9,0.9-33.9,1.1-50.8c0.1-7.2-0.1-14.4-0.2-21.6c0-2.2-0.4-4.5-0.6-6.7c-0.1-1-0.3-1.9-0.3-2.9c0-5.8-0.1-11.5,0-17.3
				c0.1-2.9,1.2-4.1,4.1-4.2c2.1-0.1,4.2,0,6.2,0.1c6.1,0.4,12.1,0.3,18.2,1.5c5.9,1.2,11.3,3.4,16.1,7c0.6,0.5,1.3,1,1.9,1.4
				c1.9,1.5,3.8,1.3,5.7,0.1c2.5-1.7,5.1-3.3,7.8-4.8c8.1-4.5,16.9-6.8,25.9-8.2c5.8-0.9,11.8-1.3,17.6-2c6.8-0.8,13.4,0,20,1.2
				c4.1,0.7,8.1,1.8,11.9,3.7c4.9,2.4,9.7,4.9,14.4,7.6c6.4,3.8,11.6,8.9,15.6,15.3c5.6,9,11.1,18,14.6,28c1.1,3,1.8,6.1,2.8,9.2
				c1.8,5.5,1.4,11,0.2,16.6c-2.9,14-9.4,26.1-18.7,36.8c-5.4,6.2-11.3,11.8-17.6,16.9c-5.1,4.1-10.4,8-15.6,12
				c-3.5,2.8-7,5.5-10.5,8.4c-1.3,1.1-2.7,2.2-3.9,4.5c1.6,0.1,2.5,0.2,3.4,0.2c14.2,0,28.5,0.1,42.7,0.1c0.8,0,1.6,0,2.4,0.1
				c2.2,0.3,3.5,1.8,3.6,3.8c0.1,2-1,3.9-3,4.3c-1.4,0.3-2.8,0.4-4.3,0.4c-23,0.2-46.1,0.3-69.1,0.4c-1,0-1.9,0.1-2.9-0.1
				c-2.8-0.5-4.1-3.7-2.3-5.9c0.9-1.1,2.2-1.9,3.3-2.7c8.5-6.1,16.3-12.9,22.9-21.1c7.6-9.3,13-19.8,15.3-31.6
				c0.4-2.2,0.7-4.4,0.9-6.6c0.3-2.9,0.6-5.7,0.8-8.6c0.1-1.4,0.1-2.9-0.1-4.3c-0.9-7.1-1.8-14.3-2.7-21.4c-0.2-1.6-0.2-3.2-0.3-4.8
				c-0.8-11.7-4.8-22.2-12.3-31.1c-5.9-7-13.7-10.8-22.8-11.9c-8.2-1.1-16.3-0.4-24.2,2.1C593.1,446.6,584.9,455.7,582.6,469.9z
				 M723,585.5c1.7-1.9,3.8-3,6.4-1.9c1.8,0.7,3.6,1.5,5.1,2.6c2.7,2,5.1,4.3,7.6,6.6c1.5,1.4,1.7,2.9,0.7,4.8
				c-1.4,2.5-3.1,4.7-5.2,6.7c-0.6-0.5-1.1-0.7-1.3-1.1c-2.8-4.4-6.4-7.9-10.4-11.2c-1.1-0.9-2.1-1.9-3-3
				C721.9,587.9,722.1,586.5,723,585.5z M612.6,554c-0.7-0.4-1.4-0.8-2-1.4c-1.2-1.1-1.4-2.4-0.8-3.9c0.7-1.7,1.9-2.9,3.3-4
				c1.7-1.2,3.4-2.4,5-3.7c0.8-0.6,1.5-1.2,2.2-1.9c2.9-3,2.9-4.8,0.1-7.8c-1.3-1.4-2.8-2.6-4.3-3.8c-2.4-2.1-2.7-3.3-1.6-6.3
				c0.6-1.8,1.3-3.6,2-5.6c1-1,2.5-0.9,3.9-0.4c1.5,0.5,2.3,1.6,2.9,3c0.2,0.4,0.5,0.9,0.5,1.3c0.5,4.9,4.3,7.1,7.7,10
				c2.9-1.6,4.4-4.2,5.1-7.2c0.1-0.6-0.3-1.7-0.8-2.1c-3.3-2.7-6.7-5.4-10.2-8c-2.1-1.6-4.5-2.4-7.1-2.4c-0.8,0-1.5-0.1-2.2-0.1
				c-0.1-0.5-0.2-0.6-0.2-0.8c2.2-6.2,4.6-12.2,8.4-17.6c0.9-1.3,1.8-2.6,2.5-4.1c0.8-1.7,0.2-3.2-1.6-3.8c-1.4-0.4-2.8-0.6-4.2-0.9
				c-1.2-0.2-2.6-0.3-3.7-0.7c-2.6-0.9-3.6-3.9-2.1-6.3c0.6-0.9,1.4-1.7,2.3-2.4c7.9-6.1,19.3-8.6,30.6-4.4c1.3,3.5,1.8,7.3,2.4,11
				c0.2,1.4,0.5,2.8,0.7,4.2c0.3,1.4,1.2,2.2,2.5,2.6c1.7,0.5,2.7,0.1,3.5-1.5c0.2-0.4,0.3-0.9,0.5-1.4c0.2-0.4,0.4-0.8,0.8-1.5
				c0.8,0.6,1.7,1,2.2,1.7c1.9,2.5,2.8,5.4,3.1,8.4c0.5,4.1,1.1,8.3,1.3,12.4c0.2,3.5-0.1,7-0.4,10.5c-0.1,1-1,1.9-1.6,2.8
				c-1.1,1.6-2.3,3.1-3.3,4.7c-1.8,3-2.2,6.3-1.2,9.7c0.1,0.3,0.2,0.6,0.3,0.9c1.9,4.2,0.7,7.9-2.1,11.1c-2.3,2.6-4.9,5-7.4,7.4
				c-1.3,1.2-2.8,2.2-4.1,3.4c-2,1.8-3.1,4-3.5,6.7c-0.1,0.9-0.5,1.9-1.1,2.5c-1.1,1.1-2.5,1.4-4,0.7c-1.3-0.6-1.7-1.9-1.6-3.2
				c0.1-1.4,0.5-2.8,0.6-4.3c0.2-2.5-0.5-3.5-2.8-4.3c-5-1.8-9.8-0.5-13.5,3.5c-0.4,0.5-0.8,0.9-1.1,1.2
				C616.6,556.6,614.6,555.3,612.6,554z M614.9,646.8c-0.2,1.1-1.1,1.5-2,1.8c-0.5,0.1-0.9,0.1-1.2,0.2c-0.3,0-0.5,0-0.6,0
				c-2.1-0.2-3.5-1.4-3.2-2.7c0.2-1.1,1.8-2.1,3.4-2c0.8,0,1.6,0.3,2.3,0.6C614.3,645,615.2,645.6,614.9,646.8z M711.3,644
				c0,1.3-0.4,2.5-0.6,3.8c-0.3,1.5-1.1,2.6-2.4,3.4c-4.7,2.6-8.5,6.3-12.5,9.7c-3,2.6-6.2,5.1-9.9,6.7c-4.6,2-7.5,1-10.7-3.2
				c0-0.2,0-0.3,0.1-0.5c3.3-4.1,4-8.9,3.8-14c-0.1-2.1,0.1-4.2,0.2-6.2c0.1-1.9,1-3.3,2.6-4.3c0.8-0.5,1.6-1,2.4-1.6
				c1.6-1.2,3.3-1.9,5.3-0.9c0.6,0.3,1.2,0.4,1.8,0.5c1,0.2,1.9-0.5,2.2-1.4c0.4-1.3,0-2.4-1-2.9c-0.6-0.2-1.2-0.6-1.8-0.5
				c-2.6,0.2-4.2-1-5.6-3c-0.3-0.4-0.6-0.7-1-1.1c-1.1-1.2-2.5-1.5-4-0.8c-1.5,0.6-2.3,1.8-2.3,3.4c0,1.2,0.3,2.5,0.5,3.8
				c0.5,2.2,0.2,3.9-1.4,5.8c-3.5,4.2-4.9,9.3-5.2,14.7c-0.2,2.7-0.1,5.4-0.2,8.2c-0.1,2-0.8,2.9-2.8,3.3c-2.4,0.6-4.8,0.5-7.1,0
				c-0.6-0.1-1.2-0.3-1.8-0.6c-4.8-1.6-9.4-3.9-14.8-4.7c0.5-1.2,0.8-2.1,1.3-2.8c3.1-4.7,6.8-8.9,11.5-12.1
				c1.3-0.9,2.6-1.9,3.6-3.1c1.7-1.9,1.4-3.8-0.6-5.4c-0.7-0.6-1.6-1.2-2.5-1.4c-2.9-0.8-5.8-1.8-8.8-2.1c-3.8-0.4-7,1.2-8.7,4.7
				c-1.1,2.2-2.6,4-4.7,5.2c-0.7,0.4-1.3,1-1.9,1.5c-3.1,3-3.7,6.2-1.7,10c0.8,1.5,1.9,3,2.9,4.4c1.4,1.8,3,3.4,4.2,5.3
				c1.4,2.1,2.8,4.3,3.7,6.7c1.8,4.7,1,9.2-2.4,13c-1.6,1.8-3.5,3.3-5.5,4.6c-3,1.8-6.2,3.3-9.3,4.9c-3,1.5-6.1,2.9-9,4.5
				c-4.9,2.7-8.8,6.4-11.4,11.4c-0.9,1.7-1.9,3.3-3.6,4.4c-2.6,1.7-5.8,1.5-8-0.5c-1.5-1.4-1.8-3-0.8-4.7c0.7-1.1,1.5-2.1,2.3-3
				c1.7-1.8,2.2-3.9,2-6.2c-0.1-1.1-0.1-2.2-0.3-3.3c-0.7-3.3-0.2-6.4,1-9.4c1-2.5,2.1-5,3.3-7.5c2.7-5.3,5-10.7,5.4-16.8
				c0.1-2.1,1.4-3.6,2.9-4.8c2.6-2,5.5-3.9,8.2-5.8c1.4-1,3-1.8,4.4-2.9c2.1-1.7,2.6-3.5,1.4-5.9c-0.8-1.6-1.9-3-2.8-4.5
				c-2.8-4.9-1.4-8,4-9c1.9-0.4,3.8-0.3,5.7-0.5c0.9-0.1,1.9-0.4,2.6-1c1.1-0.8,1.4-2.1,1-3.5c-0.4-1.2-1.2-1.8-2.4-2.1
				c-3.4-0.9-6.8-1.9-10.2-2.8c-2.8-0.8-4.9-2.4-5.8-5.2c-0.1-0.5-0.3-0.9-0.3-1.4c-0.4-2.8,0.7-4.7,3.4-5.6
				c4.8-1.5,9.5-1.3,13.7,1.7c0.8,0.5,1.5,1.2,2.2,1.9c4.3,4.3,9.7,6.1,15.6,6.3c2.2,0.1,4.5,0,6.7,0c11.5-0.2,23-0.1,34.5,0.8
				c3.2,0.2,6.4,0.2,9.6,0.3c1.1,0,2.2,0.1,3.4,0.2c2.1,0.2,3.7,1.3,4.2,3.4c0.7,3.1,1.5,6.2,1.8,9.4
				C711.5,636.3,711.4,640.2,711.3,644z M740.4,624.3c-1.1,1.1-2.3,2.2-3.6,3.2c-2.3,1.8-4.5,3.6-6.2,5.9c-1.3,1.8-2.8,2.2-4.6,1.5
				c-1.5-0.6-2.4-1.7-2.2-3.3c0.3-2.8-1.4-4.4-3.4-5.9c-2.9-2.3-2.9-3.9,0.7-5.4c4.6-1.9,9.2-3.7,14.2-4.1c3.2-0.2,4.9,0,8.1,1.5
				C743.4,620.6,742.1,622.6,740.4,624.3z M755.5,605.8c-0.3,0.5-0.7,1.1-1.1,1.5c-2.1,2.1-4.3,4.2-6.6,6.3c-2-0.1-2.9-1.5-3.2-3.3
				c-0.3-1.7,0-3.3,1.5-4.2c2.1-1.4,4.4-2.5,6.6-3.7c0.9-0.4,1.9-0.4,2.6,0.4C756.1,603.5,756.2,604.7,755.5,605.8z M780.5,470.2
				c-0.3,7.3-0.8,14.7-1.4,22c-0.3,4.3-0.5,8.6,0,12.9c0.1,1.1,0.1,2.2-0.1,3.3c-0.3,1.5-1.9,2.4-3.3,1.7c-1.1-0.5-2.2-1.3-3.2-2
				c-1.2-0.8-2.2-2-3.8-1.5c-1.3,2.5-1.3,2.5-1.1,6.6c-1.6,0.7-3.4,1.4-5.2,2.1c-0.9,0.4-1.8,0.6-2.6,1.1c-0.9,0.5-1.3,1.4-0.8,2.5
				c0.5,1.2,1.6,1.8,2.7,1.4c0.7-0.3,1.4-0.7,2.1-1.2c1.1-0.7,2.2-1,3.6-0.7c1.2,0.2,2.5-0.1,3.8-0.2c0.6-0.1,1.2-0.3,1.9-0.4
				c3.1-0.4,4.7,0.5,5.3,3.4c0.9,3.9,0.3,7.6-2.4,10.8c-1.5,1.7-3.3,3-5.4,4c-1,0.5-2.1,0.9-3.1,1.3c-1.1,0.5-1.8,1.3-1.8,2.6
				c0,1.2,1,2.3,2.4,2.6c0.8,0.2,1.6,0.2,2.4,0.3c6,0.9,8.8,3.9,9.2,9.8c0.4,6.3-0.3,12.5-2.4,18.4c-2.9,8.2-8.6,13.7-17,16.3
				c-3,1-6,0.9-8.9-0.5c-1.3-0.6-2.6-1.2-3.9-1.8c-3.5-1.6-7.2-2.7-11.1-2.3c-0.9,0.1-1.9-0.1-2.8-0.4c-1.9-0.6-3-2.5-2.9-4.5
				c0.1-1.6,1.4-2.7,2.9-2.5c1.4,0.2,2.8,0.7,4.2,0.9c2.2,0.3,3.7-0.6,4.7-2.5c0.4-0.9,0.8-1.8,1-2.7c1.1-3.9,3-7.4,5.2-10.7
				c1.3-2,2.5-4.1,3.6-6.2c1.1-2.1,0.6-4.1-1.3-5.6c-1.7-1.4-3.6-2.6-5.5-3.9c-1.8-1.3-1.7-3.2,0.3-4.1c1.3-0.6,2.7-0.9,4-1.5
				c0.9-0.3,1.8-0.7,2.5-1.3c1.1-0.8,1-2.6,0-3.3c-0.8-0.6-1.6-1.1-2.5-1.5c-3.2-1.6-4.2-4.1-3.7-7.5c0.5-3.5,1.1-6.9,1.6-10.4
				c0.7-5.3,1.1-10.5-0.4-15.7c-1.7-6-3.4-12-5.4-17.9c-2-5.9-5-11.4-8.5-16.6c-4.9-7.3-10.5-14.1-16.5-20.5
				c-4.2-4.5-9.1-7.8-15.4-9c-5.6-1.1-11-7.8-11.6-13.4c-0.3-2.3,0.5-4.4,1.4-6.5c0.7-1.6,1.4-3.2,1.9-4.9c0.8-2.9,1.5-5.9,2.3-9.2
				c-1.1-0.1-2-0.4-2.8-0.2c-1.2,0.4-2.2,1.2-3.4,1.8c-1.1,0.5-2.4,1-3.6,1.3c-0.9,0.2-1.6-0.4-1.7-1.3c-0.2-1.4-0.1-2.9-0.1-4.3
				c-0.1-2.9-1.1-4.4-3.8-5.3c-0.5-0.2-0.9-0.2-1.4-0.4c-3.2-0.9-5.3-2.6-5.3-6.4c0-2.2-1.1-3-3.1-2.6c-2.1,0.4-4.1,0.5-6.2,0.1
				c-1.9-0.4-3,0.6-3.4,2.5c-0.1,0.5-0.2,1-0.2,1.4c0.3,3.2-1.1,5-4.2,5.9c-1.8,0.5-2.4,1.9-2.2,3.8c0.3,3.4,2,5.9,5.4,6.4
				c3.5,0.5,5.9,2.2,8.1,4.7c1.8,2.1,4,3.7,6.9,3.9c1,0.1,1.8,0.6,2.2,1.6c0.6,1.3,0.5,2.5-0.3,3.6c-0.7,1-1.8,1.5-2.9,1.1
				c-2-0.7-4.1-0.3-6.2-0.5c-2.2-0.1-4.5-0.4-6.6-0.9c-2.8-0.6-5.6-1.5-8.3-2.3c-1.6-0.5-3.1-0.7-4.7-0.1c-4.5,1.6-8.8,0.6-13.3-0.9
				c-0.2-1.1-0.4-2.2-0.5-3.3c-0.3-3.2-2.1-5.3-5.1-6.3c-0.6-0.2-1.2-0.5-1.8-0.6c-4.7-0.5-8.8-2.8-13-4.7c-0.4-0.2-0.7-0.6-1.1-0.9
				c0-0.5-0.2-1-0.1-1.4c1.5-3.3,0.5-6.2-1.1-9.1c-0.2-0.4-0.5-0.8-0.7-1.3c-2.1-4.2-1.9-5.6,1.4-8.9c1.1-1.2,2.2-2.3,3.4-3.4
				c3.5-3.1,6-3.4,10.1-1.3c2.1,1.1,4.1,2.5,6.1,3.7c1.6,1,3.2,2,5,2.9c5,2.5,9.6,1.9,13.8-1.8c0.5-0.4,0.9-0.9,1.4-1.3
				c1.4-1.3,2.8-2.1,4.7-1.1c0.3,0.1,0.6,0.2,0.9,0.3c3.4,0.6,4.7-0.1,5.8-3.3c0.4-1.1,0.7-2.1,0.9-3.2c0.3-2.4,1.8-3.6,4-4.1
				c1.4-0.3,2.8-0.6,4.2-1.1c3.3-1.1,4.2-2.5,3.8-6.1c-0.1-1.1-0.4-2.2-0.2-3.3c0.6-3.9,0.1-7.7-0.6-11.5c-0.7-4.2-1-8.3,0.9-12.2
				c0.7-1.5,0.5-2.8-0.7-3.9c-0.8-0.8-1.6-1.5-2.4-2.4c-4.4-4.8-7-10.4-7-16.9c-0.1-4.6,0.2-9.3,0.7-13.9c0.9-7.3,1.9-14.6,3.2-21.8
				c0.8-5.1,2.5-9.9,4.7-14.6c0.5-1,0.9-2.1,1.5-3c1.4-2.3,3.3-3.4,6-2.9c1.1,0.2,2.2,0.4,3.4,0.6c0.3-0.7,0.6-1.2,0.8-1.8
				c0.3-1.2,1.1-1.9,2.3-2.1c2.7-0.5,5.4-0.9,8-1.4c3.9-0.8,7.3-0.1,10.3,2.5c0.4,0.3,0.8,0.6,1.2,0.8c0.1,0.1,0.3,0,0.5,0.1
				c0.2-0.1,0.4-0.3,0.5-0.4c0,0,0.1-0.1,0.1-0.2c0.6-4.6,3.1-7.9,6.9-10.5c3.4-2.4,7-4.4,9.5-7.9c1.3-1.9,3.8-1.7,5.4,0.1
				c2.3,2.7,4.9,4.7,8.4,5c2,0.2,4.2,0,6.2-0.2c2.4-0.3,4.7-0.8,7.1-1.2c1.7-0.3,3.4-0.6,5,0c0.3,0.5,0.5,0.8,0.5,1
				c-0.4,4.4,1.6,7.6,4.8,10.4c2.4,2.1,4.6,4.4,7.1,6.8c0.9-1.4,0.5-2.7,0.7-3.9c0.2-1.4,0.3-2.9,0.6-4.3c0.2-1.3,0.6-2.5,1-3.7
				c0.5-1.3,1.1-2.7,1.8-3.9c0.6-1.1,1.5-2,2.5-3.4c0.5,0.8,1,1.3,1.1,1.8c0.9,6.7,1.2,13.4,0.7,20.1c-0.7,10-1.9,20.1-1.4,30.2
				c0,0.6-0.2,1.2-0.3,1.8c-3.3-1.7-10.8-8.6-15.3-14c-0.3,0.9-0.5,1.6-0.8,2.3c-0.4,1-0.7,2.2-1.2,3.1c-1.6,2.8-3.9,3.6-6.9,2.4
				c-0.9-0.4-1.7-0.9-2.6-1.3c-4.3-2-8.6-2-13-0.1c-3.5,1.6-6.6,3.8-9.8,6.1c1.3,3.7,3.1,6.6,5.5,9.2c2.6,2.6,5.7,4.1,9.4,4.1
				c2.3,0,4.3,0.9,6.4,1.8c3.2,1.4,3,5.3,0.4,7c-1.4,0.9-3.1,1.5-4.8,2.3c-1.1-1-2-1.8-2.9-2.7c-1-1-2-2.1-3.1-3
				c-1.4-1.1-3.1-1.6-4.9-0.9c-0.8,5.2,0.9,7.6,5.6,7.8c1.1,0,2.2,0,3.6,0c3,4.6,3.7,9.4,1.4,14.5c-0.8,1.7-1.9,3.4-3.2,4.7
				c-3.8,4.1-7.8,8-12.8,10.8c-0.7,0.4-1.2,1-1.8,1.6c-0.2,0.2-0.2,0.6-0.3,1.2c1.2-0.2,2.2-0.2,3.2-0.5c2.1-0.5,4.1-0.3,6.1,0.2
				c0.4,0.1,1,0.6,1,0.9c0,0.6-0.1,1.4-0.5,1.7c-1.3,0.9-2.7,1.7-4.2,2.3c-1.4,0.6-2.8,0.3-4.1-0.5c-1.8-1.1-3.5-2.2-5.3-3.3
				c-0.9-0.6-1.3-1.5-1.1-2.5c0.3-1.2,0.7-2.5,1.4-3.5c1.9-3.1,4-6.2,6.1-9.2c0.4-0.7,1-1.3,1.4-1.9c3.1-4.5,2.3-7-3.1-8.1
				c-2.6-0.6-5.4-0.5-8.1-0.2c-5.8,0.6-11.2,2.4-16.4,5.1c-4.5,2.3-7,5.9-7.5,10.9c-0.5,5-0.1,9.9,1.4,14.7c0.8,2.4,2,4.2,4.8,4.7
				c2.2,0.4,4.1,1.7,5.8,3.2c1.6,1.3,3.2,2.7,4.7,4.1c2.7,2.3,5.6,3.6,9.2,3.2c0.9-0.1,1.8,0.1,2.6,0.1c1.3,1.6,0.7,3.3,0.9,4.9
				c0.3,2.3,1.3,3,3.6,2.6c3.5-0.7,6.7-2.1,9.5-4.4c1.8-1.5,3.6-3.2,5.4-4.8c3.6-3.3,7.6-5.8,12.8-5.6c2.3,0.1,3.2-1.2,3-3.3
				c0-0.5-0.1-1-0.2-1.4c-1.9-6.2-1.2-12.3,0.9-18.4c0.8-2.4,1.6-4.9,2.3-7.3c0.2-0.7,0.2-1.5,0.4-2.7c-2.4,1.1-4.2,2.1-6.1,2.9
				c-0.7,0.3-1.5,0.6-2.2,0.8c-1.1,0.3-2.3-0.4-2.6-1.5c-0.3-1.1-0.4-2.2-0.4-3.3c0.1-2.3,1.2-3.4,3.4-2.8c3.7,1,7.3,2.3,10.9,3.7
				c1.1,0.4,2,1.6,2.7,2.6c1,1.6,1.7,3.4,2.6,5.2c-0.8,1.1-1.6,2.1-2.2,3.1c-0.5,0.9-0.3,1.8,0.5,2.6c0.9,0.8,2.2,0.9,3-0.1
				c0.6-0.7,1-1.6,1.2-2.5c0.3-1.6,0.1-3.2,0.4-4.8c0.4-2.3,1-4.7,1.7-6.9c0.2-0.6,1-1.3,1.7-1.4c0.9-0.1,1.2,0.8,1.4,1.6
				c0.6,3.3,0.6,6.7-0.1,10c-1,4.9-1.2,9.8-1,14.8c0.1,5.4,0.1,10.9,0.2,16.3c0.1,4.3,0.4,8.6,0.8,12.9c0.5,5.8-0.5,11.1-4.8,15.5
				c-1.9,1.9-1.8,2.7-0.4,5.1c0.3,0.5,0.7,1,1.1,1.6c5.3,7.9,7,16.7,5.8,26.1c-0.8,6.2-2.2,12.3-4,18.3c-0.6,2.1-0.5,4,0.5,6
				C779.4,457.4,780.7,463.7,780.5,470.2z M779.3,312.6c-0.1,1.9-1.6,2.8-3.3,1.9c-0.4-0.2-0.8-0.5-1.2-0.8c-1.5-1.1-2.2-2.5-1.6-3
				c0.8-0.7,1.8-1.1,2.2-1.3C778.2,309.3,779.4,310.5,779.3,312.6z"/>
		</g>
	</g>
</g>
</svg>
